<svg version="1.0" xmlns="http://www.w3.org/2000/svg" width="1456" height="1456" viewBox="0 0 1092 1092"><path d="M967.9 1c-1.6 1-32.2 12.8-34.9 13.5-.8.2-9.1 3.4-18.5 7-25.9 10.1-27.8 10.7-27.1 9 .7-2 0-1.9-7 .6-3.2 1.1-6.3 2.2-6.9 2.3-.5.2-1.7.6-2.5.9-.8.3-6.2 2.2-12 4.1-5.8 2-18.4 6.3-28 9.6-9.6 3.3-24.2 8.3-32.5 11.2-12.9 4.4-16.7 6.3-17 8.8 0 .3-.6 1.4-1.2 2.6-1.3 2.3-3.1 3.2-23.8 10.9-8.2 3.1-16.6 6.2-18.5 7-7.7 3-25.5 9.8-26.5 10-.5.1-2.1.7-3.5 1.3-4.2 1.8-15.8 6.2-16.5 6.2-.4 0-2.1.7-3.8 1.5-4 1.8-22 8.5-22.9 8.5-.4 0 0-1.6.8-3.5.8-2 1-3.5.4-3.5-.8 0-9 3-16.5 6.1-1.1.4-4.9 1.9-8.5 3.2-18.1 6.9-33.7 12.9-35.5 13.6-3.1 1.4-43.7 16.8-46.2 17.5-1.2.4-3 2.5-4.1 4.9l-2 4.3-19.4 7.3c-31.1 11.8-32.2 12.2-34.3 13.1-1.1.5-5.8 2.3-10.5 4-4.7 1.7-9.4 3.5-10.5 4-1.1.5-6.5 2.5-12 4.5s-11.4 4.3-13.2 5.1c-1.7.8-3.7 1.4-4.5 1.4-.8 0-1.8.4-2.3.8-1 .9-12.6 5.2-13.9 5.2-.4 0-.2-.9.4-2.1 1.5-2.6.8-3.3-2.2-2.3-1.3.4-2.6.9-3 1-.5.1-1 .3-1.3.4-.3.1-.8.3-1.2.5-1 .2-2.7.9-13.8 5-4.9 1.8-14.2 5.2-20.5 7.6-6.3 2.3-12.8 4.7-14.5 5.4-5.4 2.3-18 6.6-18.9 6.5-.5-.1-1.2.2-1.5.7-.3.4-3.3 1.7-6.6 2.7-3.3 1.1-6.4 2.3-7 2.6-.5.4-6.2 2.6-12.6 4.9-11.1 4-11.6 4.3-13.6 8.4-1.9 3.8-2.8 4.5-9.4 6.9-12.2 4.4-71.2 26.7-73.4 27.7-1.1.5-3.3 1.4-5 2-1.6.6-4.3 1.6-6 2.2-1.6.7-3.2 1.3-3.5 1.4-.3 0-3.2 1.1-6.5 2.4-11.8 4.6-12.9 4.6-9.9.3 3.4-4.9 2.7-4.8-37.1 10-14.8 5.5-32.2 11.9-38.5 14.3-6.3 2.4-19.6 7.3-29.5 11-9.9 3.6-19.3 7.1-21 7.8-1.6.6-3.3 1.1-3.7 1-1.2-.4-2.6 2.2-4.2 7.6-1.6 5.3-1.5 5.6.8 10.8 1.4 2.9 2.2 5.3 1.9 5.3-.3 0 .1.7.8 1.6.7.9 1.4 2.1 1.5 2.8.2 1.1 11 27.5 14.4 35.1 1 2.2 5.4 12.8 9.8 23.5 15.8 38.2 21.1 50.9 22.6 53.8.8 1.6 1.2 3.2.9 3.6-.4.3 0 .6.9.6s2-1.6 2.6-3.9c2.4-7.7 5.2-13 7.5-13.7 1.2-.3 13.5-4.8 27.2-9.9 13.8-5.1 35.6-13.2 48.5-18 12.9-4.7 24.4-9 25.5-9.4 6.5-2.7 7.6-3.1 8.1-3.1.2 0-.3 1.6-1.1 3.6-1.9 4.5-1.9 6-.2 4.7 1.1-.9 18.9-8.2 21.2-8.8 1-.2 2.2-.7 9.8-3.8 2-.9 3.7-1.3 3.7-1 0 .3.6.1 1.3-.4.6-.5 4.1-2 7.7-3.2 3.6-1.3 8.4-3.2 10.8-4.2 2.3-1.1 5.6-2.2 7.2-2.6 1.7-.3 3-.9 3-1.4 0-.5.6-.9 1.3-.9.7 0 6-1.8 11.8-4 29.9-11.3 38.4-14.8 38.5-15.6 0-.5.6-2.1 1.1-3.5.9-2.1 3.3-3.3 14.5-7.4 7.3-2.6 14.7-5.4 16.3-6.1 1.7-.8 7.3-2.9 12.5-4.7 11.7-4.2 53.9-19.9 60.9-22.7l5.1-2-.6 2.7c-.6 2.3-.5 2.5 1.2 1.8 1-.4 3.7-1.3 5.9-2 3.9-1.2 19-6.8 23-8.5 1.1-.4 4.7-1.8 8-3 6-2.3 9.2-3.5 13-5.1 3.5-1.5 56.8-21.6 62.3-23.5 3.7-1.3 5.8-2.7 6.7-4.5.9-1.7 3.1-3.2 6.2-4.3 2.6-1 6.3-2.5 8.1-3.3 1.8-.8 4.2-1.5 5.2-1.6 1.1-.1 2-.5 2-.9s.5-.8 1.2-.8c.9 0 23.1-8 29.8-10.7.8-.3 2-.7 2.5-.8.6-.2 3.3-1.2 6-2.2 5.4-2.1 7.4-2.9 9-3.3.6-.2 4.2-1.6 8-3.2 3.9-1.6 7-2.8 7-2.8 0 .2 3-.9 9-3.3 2.8-1 5.5-2 6-2.2 1.3-.3 4-1.3 9.8-3.7 5.4-2.2 6.4-1.9 4.8 1-.6 1.2-1.1 2.3-1.1 2.6 0 .5 7.3-1.7 11.5-3.4 1.1-.4 7.9-2.9 15-5.4 7.2-2.6 15.3-5.5 18-6.5 12.3-4.6 28.1-10.4 29-10.6.6-.1 1.7-.5 2.5-.8.8-.3 4.7-1.7 8.5-3 3.9-1.4 8.1-3 9.5-3.6 1.4-.5 8.4-3.1 15.7-5.7 7.3-2.5 13.2-4.9 13.1-5.3 0-.3.1-.9.2-1.4.5-1.4.8-2.7.9-4.2 0-.8.8-1.5 1.6-1.5s2.3-.5 3.3-1c1.9-1.2 38.7-14.9 41.6-15.5 1-.2 2.5-1 3.4-1.7.8-.7 1.6-1.1 1.6-.9.1.4 7.3-1.9 12.1-3.9 1.1-.5 7.6-3 14.5-5.5s13.2-4.9 14-5.2c.8-.4 1.7-.7 2-.7.3-.1 6.9-2.5 14.8-5.5 7.9-2.9 14.6-5.1 14.9-4.7.3.3 0 1.9-.6 3.6-1 2.9-.9 3.1.7 2.5.9-.4 6.4-2.4 12.2-4.5 5.8-2.1 11.9-4.4 13.5-5.1 1.7-.6 3.5-1.3 4-1.4.9-.2 31.7-11.3 44.1-15.9l3.1-1.1-2.9-6c-1.6-3.3-3.1-6.7-3.3-7.5-.4-1.6-10-24.1-14.1-32.8-1.3-2.9-2.4-5.7-2.4-6.3 0-.6-.6-2.3-1.4-3.7-1.9-3.5-4.7-10-8.1-19-1.6-3.9-3.2-7.2-3.6-7.2-.4 0-1.1-1.4-1.4-3.2-.4-1.8-1.1-3.9-1.6-4.8-.4-.8-3.1-8.7-5.9-17.5-2.8-8.8-5.5-16.9-6-18-.5-1.1-1.4-3.7-2.1-5.8-1.4-4-1.6-4.1-4-2.7zM262.8 479.8c-1 .2-1.8.6-1.8.9 0 .2 4.2 5.3 9.3 11.1 5 5.9 10.2 11.8 11.3 13.2 1.2 1.4 5.7 6.6 10 11.5 4.4 5 10.2 11.7 12.9 14.9 2.8 3.2 6.4 7.3 8 9.1 1.7 1.8 4.4 5.1 6.2 7.2 1.8 2.1 4.4 5.1 5.8 6.8 1.4 1.6 4.2 5 6.3 7.4 2 2.4 4.3 5 5 5.8.8.7 6.1 6.8 11.9 13.6 5.8 6.7 12.3 14.2 14.5 16.7 7.5 8.5 14 7.7-62.8 7.4l-68.4-.3-2.4-2.8c-4.5-5.3-16.8-19.2-21.1-23.9-1.6-1.8-4.9-5.5-7.2-8.2-2.4-2.7-5.5-6.3-7-7.9-1.6-1.7-4.7-5.2-7-8-2.4-2.7-5.3-6.1-6.5-7.5-2-2.1-10.7-12-16.1-18.2-8.9-10.2-18.5-21-31.2-35.2-1.1-1.2-3.5-4-5.4-6.3-1.9-2.3-3.7-4.1-4-4.1-1 0-1.3 58.4-1.7 304.5l-.4 234 2.4 9.1c6.1 23.2 21.2 40.6 44.8 51.8 10.7 5 16.2 6.7 26.4 8.3 6.2 1 753.7 1.1 761.9.1 7.3-.9 21-5.5 28.5-9.7 10.7-5.9 23.4-20 28.8-32.1 2.3-5.1 5.3-16 5.7-20.5.2-1.7.6-5.6 1-8.7.4-3.1.8-97.6.9-209.9l.3-204.2-26.6-26.8c-90.4-91.2-99.2-99.9-100.9-99.1-.9.4-14.1.6-29.2.5-15.1-.2-29.1-.3-31-.2-1.9 0-8.3.1-14.3.2-5.9.1-10.7-.1-10.7-.5s-1-.4-2.2.1c-1.3.4-3.5.5-4.9.1-1.5-.4-3.1-.5-3.7-.1-.5.3-7.6.6-15.6.5-8 0-14.5.1-14.4.2.2.2 27.5 27.8 60.8 61.4 33.3 33.7 60.8 61.7 61.2 62.4.6 1-11.3 1.3-59.2 1.3h-60l-48.7-49.5c-26.9-27.2-54.6-55.2-61.6-62.3L647.9 481h-17.2c-9.5-.1-36-.2-59-.4l-41.8-.3 1.8 2c2 2.3 6.7 7.1 72.8 74.2 25.9 26.2 47.1 48 47.3 48.4.1.4-35.1.8-78.4.8h-78.6l-3.2-3.5c-1.7-1.9-4-4.5-5.1-5.6-1.1-1.2-5.1-5.7-9-10.1-3.8-4.4-8.6-9.8-10.6-12-2-2.2-4.9-5.5-6.4-7.3-1.6-1.9-4-4.6-5.4-6-1.4-1.5-5.3-5.8-8.6-9.6s-6.4-7.4-7-8c-.5-.6-4.4-4.9-8.5-9.6-4.1-4.7-7.9-9-8.5-9.6-.5-.6-3.3-3.7-6.2-7-2.8-3.2-6.2-7.1-7.5-8.5-4-4.5-10.1-11.3-16.3-18.4-3.3-3.8-6.7-7.7-7.6-8.6-1.4-1.4-3.8-1.6-15.5-1.5-7.7.1-14.7-.2-15.6-.7-1-.4-1.8-.4-1.8 0s-4.8.7-10.7.5c-6-.1-11.7-.2-12.8-.2-1.1 0-10 .1-19.8.3-9.9.1-18.1-.1-18.4-.6-.2-.4-.9-.4-1.5 0-1.3.8-23.7 1-24.1.3-.1-.3-1-.4-1.9-.2z"/></svg>