<svg aria-hidden="true" style="position: absolute; width: 0; height: 0; overflow: hidden;" version="1.1" xmlns="http://www.w3.org/2000/svg" xmlns:xlink="http://www.w3.org/1999/xlink">
<defs>
<symbol id="icon-Vector" viewBox="0 0 32 32">
<path fill="#ff6b08" style="fill: var(--color1, #ff6b08)" d="M16 30.144l-2.24-2.218c-8.32-7.287-13.76-12.198-13.76-18.218 0-4.911 3.84-8.713 8.8-8.713 2.72 0 5.44 1.267 7.2 3.327 1.76-2.059 4.48-3.327 7.2-3.327 4.96 0 8.8 3.802 8.8 8.713 0 6.020-5.44 10.931-13.76 18.218l-2.24 2.218z"></path>
</symbol>
<symbol id="icon-film" viewBox="0 0 32 32">
<path fill="none" stroke="#fff" style="stroke: var(--color2, #fff)" stroke-linejoin="round" stroke-linecap="round" stroke-miterlimit="4" stroke-width="2.6667" d="M26.427 2.667h-20.853c-1.605 0-2.907 1.301-2.907 2.907v20.853c0 1.605 1.301 2.907 2.907 2.907h20.853c1.605 0 2.907-1.301 2.907-2.907v-20.853c0-1.605-1.301-2.907-2.907-2.907z"></path>
<path fill="none" stroke="#fff" style="stroke: var(--color2, #fff)" stroke-linejoin="round" stroke-linecap="round" stroke-miterlimit="4" stroke-width="2.6667" d="M9.333 2.667v26.667"></path>
<path fill="none" stroke="#fff" style="stroke: var(--color2, #fff)" stroke-linejoin="round" stroke-linecap="round" stroke-miterlimit="4" stroke-width="2.6667" d="M22.667 2.667v26.667"></path>
<path fill="none" stroke="#fff" style="stroke: var(--color2, #fff)" stroke-linejoin="round" stroke-linecap="round" stroke-miterlimit="4" stroke-width="2.6667" d="M2.667 16h26.667"></path>
<path fill="none" stroke="#fff" style="stroke: var(--color2, #fff)" stroke-linejoin="round" stroke-linecap="round" stroke-miterlimit="4" stroke-width="2.6667" d="M2.667 9.333h6.667"></path>
<path fill="none" stroke="#fff" style="stroke: var(--color2, #fff)" stroke-linejoin="round" stroke-linecap="round" stroke-miterlimit="4" stroke-width="2.6667" d="M2.667 22.667h6.667"></path>
<path fill="none" stroke="#fff" style="stroke: var(--color2, #fff)" stroke-linejoin="round" stroke-linecap="round" stroke-miterlimit="4" stroke-width="2.6667" d="M22.667 22.667h6.667"></path>
<path fill="none" stroke="#fff" style="stroke: var(--color2, #fff)" stroke-linejoin="round" stroke-linecap="round" stroke-miterlimit="4" stroke-width="2.6667" d="M22.667 9.333h6.667"></path>
</symbol>
<symbol id="icon-search-2" viewBox="0 0 32 32">
<path fill="none" stroke="#fff" style="stroke: var(--color2, #fff)" stroke-linejoin="round" stroke-linecap="round" stroke-miterlimit="4" stroke-width="2.6667" d="M14.667 25.333c5.891 0 10.667-4.776 10.667-10.667s-4.776-10.667-10.667-10.667c-5.891 0-10.667 4.776-10.667 10.667s4.776 10.667 10.667 10.667z"></path>
<path fill="none" stroke="#fff" style="stroke: var(--color2, #fff)" stroke-linejoin="round" stroke-linecap="round" stroke-miterlimit="4" stroke-width="2.6667" d="M28 28.001l-5.8-5.8"></path>
</symbol>
<symbol id="linkedin" viewBox="0 0 32 32">
      <path d="M31.992 32H32V20.262c0-5.741-1.235-10.163-7.947-10.163-3.227 0-5.392 1.77-6.277 3.45h-.093v-2.914h-6.365v21.363h6.627V21.42c0-2.786.528-5.48 3.978-5.48 3.398 0 3.45 3.179 3.45 5.658V32h6.619zM.528 10.635h6.635V32H.528V10.635zM3.843 0C1.72 0 0 1.721 0 3.843c0 2.12 1.722 3.878 3.843 3.878 2.12 0 3.842-1.757 3.842-3.878S5.965.002 3.844 0z"/>
    </symbol>
    <symbol id="github" viewBox="0 0 32 32">
<path d="M16 0.395c-8.836 0-16 7.163-16 16 0 7.069 4.585 13.067 10.942 15.182 0.8 0.148 1.094-0.347 1.094-0.77 0-0.381-0.015-1.642-0.022-2.979-4.452 0.968-5.391-1.888-5.391-1.888-0.728-1.849-1.776-2.341-1.776-2.341-1.452-0.993 0.11-0.973 0.11-0.973 1.606 0.113 2.452 1.649 2.452 1.649 1.427 2.446 3.743 1.739 4.656 1.33 0.143-1.034 0.558-1.74 1.016-2.14-3.554-0.404-7.29-1.777-7.29-7.907 0-1.747 0.625-3.174 1.649-4.295-0.166-0.403-0.714-2.030 0.155-4.234 0 0 1.344-0.43 4.401 1.64 1.276-0.355 2.645-0.532 4.005-0.539 1.359 0.006 2.729 0.184 4.008 0.539 3.054-2.070 4.395-1.64 4.395-1.64 0.871 2.204 0.323 3.831 0.157 4.234 1.026 1.12 1.647 2.548 1.647 4.295 0 6.145-3.743 7.498-7.306 7.895 0.574 0.497 1.085 1.47 1.085 2.963 0 2.141-0.019 3.864-0.019 4.391 0 0.426 0.288 0.925 1.099 0.768 6.354-2.118 10.933-8.113 10.933-15.18 0-8.837-7.164-16-16-16z"></path>
</symbol>
</defs>
</svg>