<?xml version="1.0" standalone="no"?>
<!DOCTYPE svg PUBLIC "-//W3C//DTD SVG 20010904//EN"
 "http://www.w3.org/TR/2001/REC-SVG-20010904/DTD/svg10.dtd">
<svg version="1.0" xmlns="http://www.w3.org/2000/svg"
 width="1092.000000pt" height="1092.000000pt" viewBox="0 0 1092.000000 1092.000000"
 preserveAspectRatio="xMidYMid meet">
<metadata>
Created by potrace 1.14, written by Peter Selinger 2001-2017
</metadata>
<g transform="translate(0.000000,1092.000000) scale(0.100000,-0.100000)"
fill="#000000" stroke="none">
<path d="M9679 10910 c-16 -10 -322 -128 -349 -135 -8 -2 -91 -34 -185 -70
-259 -101 -278 -107 -271 -90 7 20 0 19 -70 -6 -32 -11 -63 -22 -69 -23 -5 -2
-17 -6 -25 -9 -8 -3 -62 -22 -120 -41 -58 -20 -184 -63 -280 -96 -96 -33 -242
-83 -325 -112 -129 -44 -167 -63 -170 -88 0 -3 -6 -14 -12 -26 -13 -23 -31
-32 -238 -109 -82 -31 -166 -62 -185 -70 -77 -30 -255 -98 -265 -100 -5 -1
-21 -7 -35 -13 -42 -18 -158 -62 -165 -62 -4 0 -21 -7 -38 -15 -40 -18 -220
-85 -229 -85 -4 0 0 16 8 35 8 20 10 35 4 35 -8 0 -90 -30 -165 -61 -11 -4
-49 -19 -85 -32 -181 -69 -337 -129 -355 -136 -31 -14 -437 -168 -462 -175
-12 -4 -30 -25 -41 -49 l-20 -43 -194 -73 c-311 -118 -322 -122 -343 -131 -11
-5 -58 -23 -105 -40 -47 -17 -94 -35 -105 -40 -11 -5 -65 -25 -120 -45 -55
-20 -114 -43 -132 -51 -17 -8 -37 -14 -45 -14 -8 0 -18 -4 -23 -8 -10 -9 -126
-52 -139 -52 -4 0 -2 9 4 21 15 26 8 33 -22 23 -13 -4 -26 -9 -30 -10 -5 -1
-10 -3 -13 -4 -3 -1 -8 -3 -12 -5 -10 -2 -27 -9 -138 -50 -49 -18 -142 -52
-205 -76 -63 -23 -128 -47 -145 -54 -54 -23 -180 -66 -189 -65 -5 1 -12 -2
-15 -7 -3 -4 -33 -17 -66 -27 -33 -11 -64 -23 -70 -26 -5 -4 -62 -26 -126 -49
-111 -40 -116 -43 -136 -84 -19 -38 -28 -45 -94 -69 -122 -44 -712 -267 -734
-277 -11 -5 -33 -14 -50 -20 -16 -6 -43 -16 -60 -22 -16 -7 -32 -13 -35 -14
-3 0 -32 -11 -65 -24 -118 -46 -129 -46 -99 -3 34 49 27 48 -371 -100 -148
-55 -322 -119 -385 -143 -63 -24 -196 -73 -295 -110 -99 -36 -193 -71 -210
-78 -16 -6 -33 -11 -37 -10 -12 4 -26 -22 -42 -76 -16 -53 -15 -56 8 -108 14
-29 22 -53 19 -53 -3 0 1 -7 8 -16 7 -9 14 -21 15 -28 2 -11 110 -275 144
-351 10 -22 54 -128 98 -235 158 -382 211 -509 226 -538 8 -16 12 -32 9 -36
-4 -3 0 -6 9 -6 9 0 20 16 26 39 24 77 52 130 75 137 12 3 135 48 272 99 138
51 356 132 485 180 129 47 244 90 255 94 65 27 76 31 81 31 2 0 -3 -16 -11
-36 -19 -45 -19 -60 -2 -47 11 9 189 82 212 88 10 2 22 7 98 38 20 9 37 13 37
10 0 -3 6 -1 13 4 6 5 41 20 77 32 36 13 84 32 108 42 23 11 56 22 72 26 17 3
30 9 30 14 0 5 6 9 13 9 7 0 60 18 118 40 299 113 384 148 385 156 0 5 6 21
11 35 9 21 33 33 145 74 73 26 147 54 163 61 17 8 73 29 125 47 117 42 539
199 609 227 l51 20 -6 -27 c-6 -23 -5 -25 12 -18 10 4 37 13 59 20 39 12 190
68 230 85 11 4 47 18 80 30 60 23 92 35 130 51 35 15 568 216 623 235 37 13
58 27 67 45 9 17 31 32 62 43 26 10 63 25 81 33 18 8 42 15 52 16 11 1 20 5
20 9 0 4 5 8 12 8 9 0 231 80 298 107 8 3 20 7 25 8 6 2 33 12 60 22 54 21 74
29 90 33 6 2 42 16 80 32 39 16 70 28 70 28 0 -2 30 9 90 33 28 10 55 20 60
22 13 3 40 13 98 37 54 22 64 19 48 -10 -6 -12 -11 -23 -11 -26 0 -5 73 17
115 34 11 4 79 29 150 54 72 26 153 55 180 65 123 46 281 104 290 106 6 1 17
5 25 8 8 3 47 17 85 30 39 14 81 30 95 36 14 5 84 31 157 57 73 25 132 49 131
53 0 3 1 9 2 14 5 14 8 27 9 42 0 8 8 15 16 15 8 0 23 5 33 10 19 12 387 149
416 155 10 2 25 10 34 17 8 7 16 11 16 9 1 -4 73 19 121 39 11 5 76 30 145 55
69 25 132 49 140 52 8 4 17 7 20 7 3 1 69 25 148 55 79 29 146 51 149 47 3 -3
0 -19 -6 -36 -10 -29 -9 -31 7 -25 9 4 64 24 122 45 58 21 119 44 135 51 17 6
35 13 40 14 9 2 317 113 441 159 l31 11 -29 60 c-16 33 -31 67 -33 75 -4 16
-100 241 -141 328 -13 29 -24 57 -24 63 0 6 -6 23 -14 37 -19 35 -47 100 -81
190 -16 39 -32 72 -36 72 -4 0 -11 14 -14 32 -4 18 -11 39 -16 48 -4 8 -31 87
-59 175 -28 88 -55 169 -60 180 -5 11 -14 37 -21 58 -14 40 -16 41 -40 27z"/>
<path d="M2628 6122 c-10 -2 -18 -6 -18 -9 0 -2 42 -53 93 -111 50 -59 102
-118 113 -132 12 -14 57 -66 100 -115 44 -50 102 -117 129 -149 28 -32 64 -73
80 -91 17 -18 44 -51 62 -72 18 -21 44 -51 58 -68 14 -16 42 -50 63 -74 20
-24 43 -50 50 -58 8 -7 61 -68 119 -136 58 -67 123 -142 145 -167 75 -85 140
-77 -628 -74 l-684 3 -24 28 c-45 53 -168 192 -211 239 -16 18 -49 55 -72 82
-24 27 -55 63 -70 79 -16 17 -47 52 -70 80 -24 27 -53 61 -65 75 -20 21 -107
120 -161 182 -89 102 -185 210 -312 352 -11 12 -35 40 -54 63 -19 23 -37 41
-40 41 -10 0 -13 -584 -17 -3045 l-4 -2340 24 -91 c61 -232 212 -406 448 -518
107 -50 162 -67 264 -83 62 -10 7537 -11 7619 -1 73 9 210 55 285 97 107 59
234 200 288 321 23 51 53 160 57 205 2 17 6 56 10 87 4 31 8 976 9 2099 l3
2042 -266 268 c-904 912 -992 999 -1009 991 -9 -4 -141 -6 -292 -5 -151 2
-291 3 -310 2 -19 0 -83 -1 -143 -2 -59 -1 -107 1 -107 5 0 4 -10 4 -22 -1
-13 -4 -35 -5 -49 -1 -15 4 -31 5 -37 1 -5 -3 -76 -6 -156 -5 -80 0 -145 -1
-144 -2 2 -2 275 -278 608 -614 333 -337 608 -617 612 -624 6 -10 -113 -13
-592 -13 l-600 0 -487 495 c-269 272 -546 552 -616 623 l-128 129 -172 0 c-95
1 -360 2 -590 4 l-418 3 18 -20 c20 -23 67 -71 728 -742 259 -262 471 -480
473 -484 1 -4 -351 -8 -784 -8 l-786 0 -32 35 c-17 19 -40 45 -51 56 -11 12
-51 57 -90 101 -38 44 -86 98 -106 120 -20 22 -49 55 -64 73 -16 19 -40 46
-54 60 -14 15 -53 58 -86 96 -33 38 -64 74 -70 80 -5 6 -44 49 -85 96 -41 47
-79 90 -85 96 -5 6 -33 37 -62 70 -28 32 -62 71 -75 85 -40 45 -101 113 -163
184 -33 38 -67 77 -76 86 -14 14 -38 16 -155 15 -77 -1 -147 2 -156 7 -10 4
-18 4 -18 0 0 -4 -48 -7 -107 -5 -60 1 -117 2 -128 2 -11 0 -100 -1 -198 -3
-99 -1 -181 1 -184 6 -2 4 -9 4 -15 0 -13 -8 -237 -10 -241 -3 -1 3 -10 4 -19
2z"/>
</g>
</svg>
